#!OML:ASF I:\Random Stuff\random\construction\7_22_03\Session 2\subj1.ASF
:FULLY-SPECIFIED
:DEGREES
418
root -9.96735 17.7557 -6.16805 -180.86 103.535 -198.399
lowerback 13.4924 1.79485 -3.59385
upperback 4.30748 1.9663 -2.88018
thorax -3.03489 1.05755 -1.29991
lowerneck -17.7424 4.04962 3.99927
upperneck 40.7843 7.80917 -2.56559
head 18.7074 3.75736 -0.182035
rclavicle -9.54166e-015 9.54166e-015
rhumerus -29.8019 35.1988 -97.3081
rradius 70.5082
rwrist 2.45915
rhand -52.5251 48.6423
rfingers 7.12502
rthumb -25.0107 20.2596
lclavicle -9.54166e-015 9.54166e-015
lhumerus 7.39121 -30.9538 86.2434
lradius 46.8436
lwrist -4.59974
lhand -13.4231 43.5361
lfingers 7.12502
lthumb 12.6853 73.1308
rfemur -19.0375 6.03272 14.3625
rtibia -2.10712e-014
rfoot 3.67104 -7.81947
rtoes -24.2087
lfemur -30.244 -4.26377 -9.13979
ltibia 26.0683
lfoot -15.1479 14.7264
ltoes -26.1505
419
root -9.96624 17.7538 -6.1726 -181.462 103.015 -198.79
lowerback 13.7604 1.60146 -3.37339
upperback 4.40133 1.73813 -2.8132
thorax -3.07655 0.947038 -1.32395
lowerneck -17.7593 4.07731 3.98011
upperneck 40.7655 7.86519 -2.58951
head 18.7043 3.77207 -0.177949
rclavicle 3.10104e-014 3.49861e-014
rhumerus -29.398 35.1874 -97.0316
rradius 69.9577
rwrist 3.06359
rhand -52.2693 47.3319
rfingers 7.12502
rthumb -24.7656 18.9153
lclavicle 3.10104e-014 3.49861e-014
lhumerus 7.42594 -30.9325 86.2582
lradius 46.8705
lwrist -4.58765
lhand -13.3084 43.5043
lfingers 7.12502
lthumb 12.7959 73.0921
rfemur -18.6532 5.53701 14.4611
rtibia 2.3059e-014
rfoot 3.5486 -7.8611
rtoes -24.0421
lfemur -30.1554 -4.5723 -9.16156
ltibia 26.0269
lfoot -15.1039 14.4908
ltoes -26.0299
420
root -9.97309 17.7541 -6.16395 -181.271 103.464 -198.672
lowerback 13.6446 1.78468 -3.53373
upperback 4.37475 1.96068 -2.78711
thorax -3.04807 1.05508 -1.23927
lowerneck -17.7701 4.08112 3.96385
upperneck 40.7967 7.88208 -2.58479
head 18.7258 3.77698 -0.168337
rclavicle 3.49861e-014 -1.27222e-014
rhumerus -28.9549 35.1191 -96.8101
rradius 69.325
rwrist 3.70709
rhand -51.9831 45.3893
rfingers 7.12502
rthumb -24.4913 16.9353
lclavicle 3.49861e-014 -1.27222e-014
lhumerus 7.43811 -30.9531 86.2666
lradius 46.8768
lwrist -4.63741
lhand -13.2341 43.3844
lfingers 7.12502
lthumb 12.8675 72.9677
rfemur -18.8735 5.99075 14.4539
rtibia 1.22253e-014
rfoot 3.61991 -7.84032
rtoes -23.7761
lfemur -30.1181 -4.22153 -9.10433
ltibia 26.0391
lfoot -15.1478 14.5795
ltoes -26.2401
421
root -9.9763 17.7535 -6.16149 -181.091 103.601 -198.497
lowerback 13.589 1.82195 -3.58966
upperback 4.39965 2.00727 -2.77343
thorax -2.99422 1.07744 -1.19842
lowerneck -17.7351 4.11569 3.99124
upperneck 40.7821 7.96915 -2.6804
head 18.7213 3.80266 -0.201123
rclavicle 3.4191e-014 -1.27222e-014
rhumerus -28.3677 35.1844 -96.5846
rradius 68.6379
rwrist 4.35922
rhand -51.5335 42.8385
rfingers 7.12502
rthumb -24.0603 14.3268
lclavicle 3.4191e-014 -1.27222e-014
lhumerus 7.47119 -30.9057 86.2279
lradius 46.8984
lwrist -4.73769
lhand -13.2286 43.2022
lfingers 7.12502
lthumb 12.8728 72.7853
rfemur -18.934 6.13399 14.4189
rtibia -9.93923e-016
rfoot 3.66136 -7.83025
rtoes -23.9973
lfemur -30.1032 -4.11848 -9.12373
ltibia 26.0682
lfoot -15.2027 14.5926
ltoes -26.2765
422
root -9.97874 17.7509 -6.16097 -181.113 103.581 -198.508
lowerback 13.5463 1.79226 -3.58693
upperback 4.45011 1.97581 -2.73665
thorax -2.91923 1.06135 -1.15359
lowerneck -17.6892 4.1611 4.05949
upperneck 40.7481 8.07915 -2.83286
head 18.7106 3.83572 -0.263679
rclavicle 1.51076e-014 -1.11319e-014
rhumerus -27.653 35.4047 -96.3159
rradius 68.0002
rwrist 4.57777
rhand -50.8661 39.663
rfingers 7.12502
rthumb -23.4202 11.0682
lclavicle 1.51076e-014 -1.11319e-014
lhumerus 7.5238 -30.8333 86.1664
lradius 46.9384
lwrist -4.85748
lhand -13.2125 43.1147
lfingers 7.12502
lthumb 12.8883 72.6968
rfemur -18.9397 6.12435 14.4324
rtibia 4.77083e-014
rfoot 3.70816 -7.80972
rtoes -24.5838
lfemur -30.1316 -4.10602 -9.1238
ltibia 26.1112
lfoot -15.2208 14.5609
ltoes -26.1139
423
root -9.98213 17.7498 -6.16186 -181.133 103.554 -198.524
lowerback 13.559 1.7806 -3.5353
upperback 4.46189 1.96767 -2.72782
thorax -2.91247 1.05742 -1.17218
lowerneck -17.692 4.17153 4.12173
upperneck 40.8216 8.10885 -2.87879
head 18.7657 3.85126 -0.288636
rclavicle -3.10104e-014 -9.54166e-015
rhumerus -26.9589 35.671 -96.0942
rradius 67.4636
rwrist 3.70893
rhand -49.4973 35.658
rfingers 7.12502
rthumb -22.1065 6.90173
lclavicle -3.10104e-014 -9.54166e-015
lhumerus 7.53883 -30.8849 86.0929
lradius 47.0092
lwrist -4.90888
lhand -13.1143 43.1808
lfingers 7.12502
lthumb 12.983 72.7568
rfemur -18.949 6.1018 14.4338
rtibia 2.14687e-014
rfoot 3.72347 -7.8038
rtoes -24.6898
lfemur -30.1544 -4.07242 -9.13604
ltibia 26.1147
lfoot -15.1514 14.5028
ltoes -26.0435
